{"buffers":[{"uri":"st501ex09_3d.bin","byteLength":171264}],"asset":{"version":"2.0","generator":"gltfpack 0.16"},"bufferViews":[{"buffer":0,"byteOffset":0,"byteLength":58368,"byteStride":12,"target":34962},{"buffer":0,"byteOffset":58368,"byteLength":58368,"byteStride":12,"target":34962},{"buffer":0,"byteOffset":116736,"byteLength":54528,"target":34963}],"accessors":[{"bufferView":0,"byteOffset":0,"componentType":5126,"count":2432,"type":"VEC3","min":[7.13003016,-15.0918636,-4.69399977],"max":[7.21410179,-14.9601173,-4.61402941]},{"bufferView":1,"byteOffset":0,"componentType":5126,"count":2432,"type":"VEC3"},{"bufferView":2,"byteOffset":0,"componentType":5123,"count":13632,"type":"SCALAR"},{"bufferView":0,"byteOffset":29184,"componentType":5126,"count":2432,"type":"VEC3","min":[7.13003016,-15.0918636,-4.69399977],"max":[7.21410179,-14.9601173,-4.61402941]},{"bufferView":1,"byteOffset":29184,"componentType":5126,"count":2432,"type":"VEC3"},{"bufferView":2,"byteOffset":27264,"componentType":5123,"count":13632,"type":"SCALAR"}],"materials":[{"pbrMetallicRoughness":{"baseColorFactor":[0,0,1,1],"metallicFactor":0},"doubleSided":true}],"meshes":[{"primitives":[{"attributes":{"POSITION":0,"NORMAL":1},"mode":4,"indices":2,"material":0}]},{"primitives":[{"attributes":{"POSITION":3,"NORMAL":4},"mode":4,"indices":5,"material":0}]}],"nodes":[{"mesh":0},{"mesh":1},{"name":"location <Not Shared>","children":[0],"extras":{"Category":"st501ex01_3d.dwg","Design Option":"-1","Enable Cutting in Views":"No","Instance Scale":"1","Offset from Work Plane":"0","Work Plane":"Level : B.O. Footing","Name":"st501ex01_3d.dwg","Family and Type":"Import Symbol: st501ex01_3d.dwg","Family":"Import Symbol","Type":"st501ex01_3d.dwg","Type Id":"300681"}},{"name":"location <Not Shared>","children":[1],"extras":{"Category":"st501ex09_3d.dwg","Design Option":"-1","Enable Cutting in Views":"No","Instance Scale":"1","Offset from Work Plane":"0","Work Plane":"Level : B.O. Footing","Name":"st501ex09_3d.dwg","Family and Type":"Import Symbol: st501ex09_3d.dwg","Family":"Import Symbol","Type":"st501ex09_3d.dwg","Type Id":"300755"}}],"scenes":[{"nodes":[2,3]}]}